<svg width="247" height="231" viewBox="0 0 247 231" fill="none" xmlns="http://www.w3.org/2000/svg">
<g clip-path="url(#clip0)">
<path d="M-64.9956 157.23C-48.4394 172.277 -31.5264 186.821 -14.2208 200.862C-16.5758 223.127 -18.3242 245.463 -19.466 267.872C2.79925 266.723 24.9931 264.963 47.1157 262.593C61.0671 280.01 75.5538 297.068 90.4687 313.694C105.419 297.032 119.87 280.01 133.822 262.593C155.944 264.963 178.138 266.723 200.403 267.872C199.262 245.463 197.513 223.127 195.158 200.862C212.464 186.821 229.412 172.241 245.933 157.23C229.377 142.184 212.464 127.64 195.158 113.598C197.513 91.3336 199.262 68.997 200.403 46.5885C178.138 47.7377 155.944 49.4973 133.822 51.8674C119.906 34.4147 105.419 17.3929 90.5044 0.730225C75.5538 17.3929 61.1028 34.4147 47.1514 51.8315C25.0288 49.4614 2.83493 47.7018 -19.4303 46.5526C-18.2885 68.9611 -16.5401 91.2977 -14.1851 113.562C-31.5264 127.64 -48.4394 142.184 -64.9956 157.23ZM61.7808 169.189C61.7094 169.117 61.6024 169.081 61.531 169.009C61.7094 169.045 61.8878 169.045 62.0662 169.081C61.9592 169.224 61.8521 169.368 61.7451 169.512C61.7451 169.404 61.7451 169.296 61.7808 169.189ZM61.7808 145.236C61.7808 145.128 61.7451 145.02 61.7451 144.913C61.8521 145.056 61.9592 145.2 62.0662 145.344C61.8878 145.38 61.7094 145.38 61.531 145.416C61.6024 145.38 61.6737 145.308 61.7808 145.236ZM78.5868 128.322C78.6581 128.25 78.6938 128.142 78.7652 128.071C78.7295 128.25 78.7295 128.43 78.6938 128.609C78.5511 128.501 78.4084 128.394 78.2656 128.286C78.4084 128.286 78.4797 128.286 78.5868 128.322ZM102.386 128.322C102.493 128.322 102.6 128.286 102.707 128.286C102.565 128.394 102.422 128.501 102.279 128.609C102.244 128.43 102.244 128.25 102.208 128.071C102.279 128.142 102.351 128.214 102.386 128.322ZM119.228 145.236C119.299 145.308 119.406 145.344 119.478 145.416C119.299 145.38 119.121 145.38 118.943 145.344C119.05 145.2 119.157 145.056 119.264 144.913C119.264 145.056 119.228 145.128 119.228 145.236ZM119.228 169.189C119.228 169.296 119.264 169.404 119.264 169.512C119.157 169.368 119.05 169.224 118.943 169.081C119.121 169.045 119.299 169.045 119.478 169.009C119.406 169.081 119.299 169.153 119.228 169.189ZM102.386 186.139C102.315 186.21 102.279 186.318 102.208 186.39C102.244 186.21 102.244 186.031 102.279 185.851C102.422 185.959 102.565 186.067 102.707 186.174C102.6 186.174 102.493 186.139 102.386 186.139ZM78.5868 186.139C78.4797 186.139 78.3727 186.174 78.2656 186.174C78.4084 186.067 78.5511 185.959 78.6938 185.851C78.7295 186.031 78.7295 186.21 78.7652 186.39C78.7295 186.318 78.6581 186.21 78.5868 186.139ZM77.0525 162.832C67.6325 161.683 58.2126 160.534 48.8284 159.349C47.9363 158.631 47.0086 157.948 46.1166 157.23C47.0086 156.512 47.9363 155.83 48.8284 155.111C58.2483 153.926 67.6682 152.741 77.0525 151.628C71.2007 144.123 65.3489 136.581 59.5328 129.04C59.3901 127.891 59.2474 126.742 59.1047 125.629C60.2465 125.772 61.3883 125.916 62.4944 126.06C69.9875 131.913 77.4806 137.802 84.9381 143.692C86.0799 134.211 87.2217 124.731 88.3992 115.286C89.1128 114.388 89.7908 113.455 90.5044 112.557C91.218 113.455 91.896 114.388 92.6096 115.286C93.7871 124.767 94.9646 134.247 96.0707 143.692C103.528 137.802 111.021 131.913 118.514 126.06C119.656 125.916 120.798 125.772 121.904 125.629C121.761 126.778 121.619 127.927 121.476 129.04C115.66 136.581 109.808 144.123 103.956 151.628C113.376 152.777 122.796 153.926 132.18 155.111C133.072 155.83 134 156.512 134.892 157.23C134 157.948 133.072 158.631 132.18 159.349C122.76 160.534 113.341 161.719 103.956 162.832C109.808 170.338 115.66 177.879 121.476 185.42C121.619 186.569 121.761 187.719 121.904 188.832C120.762 188.688 119.62 188.545 118.514 188.401C111.021 182.547 103.528 176.658 96.0707 170.769C94.9289 180.249 93.7871 189.73 92.6096 199.174C91.896 200.072 91.218 201.006 90.5044 201.903C89.7908 201.006 89.1128 200.072 88.3992 199.174C87.2217 189.694 86.0442 180.213 84.9381 170.769C77.4806 176.658 69.9875 182.547 62.4944 188.401C61.3526 188.545 60.2108 188.688 59.1047 188.832C59.2474 187.683 59.3901 186.534 59.5328 185.42C65.3489 177.879 71.2007 170.338 77.0525 162.832ZM25.2786 157.23C32.8074 163.227 40.3719 169.117 48.0077 174.934C46.6875 184.487 45.4743 194.039 44.3682 203.627C53.8952 202.514 63.3864 201.293 72.8777 199.964C78.6581 207.649 84.5099 215.298 90.4687 222.84C96.4275 215.298 102.279 207.649 108.06 199.964C117.551 201.293 127.042 202.514 136.569 203.627C135.463 194.039 134.25 184.487 132.93 174.934C140.566 169.117 148.166 163.227 155.659 157.23C148.166 151.233 140.566 145.344 132.93 139.526C134.25 129.974 135.463 120.421 136.569 110.833C127.042 111.946 117.551 113.167 108.06 114.496C102.279 106.811 96.4275 99.1622 90.4687 91.6209C84.5099 99.1981 78.6581 106.811 72.8777 114.496C63.3864 113.167 53.8952 111.946 44.3682 110.833C45.4743 120.421 46.6875 129.974 48.0077 139.526C40.3719 145.308 32.7717 151.233 25.2786 157.23ZM1.33631 194.398C-13.7926 182.368 -28.6005 169.979 -43.1585 157.23C-28.6005 144.482 -13.7926 132.093 1.33631 120.062C-0.911629 100.778 -2.6957 81.4581 -4.01591 62.1021C15.2164 63.4308 34.4131 65.2263 53.574 67.4887C65.5273 52.2625 77.8375 37.3594 90.5044 22.7077C103.171 37.3594 115.481 52.2625 127.435 67.4887C146.596 65.2263 165.792 63.4308 185.025 62.1021C183.704 81.4581 181.92 100.778 179.672 120.062C194.801 132.093 209.609 144.482 224.167 157.23C209.609 169.979 194.801 182.368 179.672 194.398C181.92 213.682 183.704 233.002 185.025 252.358C165.792 251.03 146.596 249.234 127.435 246.972C115.481 262.198 103.171 277.101 90.5044 291.753C77.8375 277.101 65.5273 262.198 53.574 246.972C34.4131 249.234 15.2164 251.03 -4.01591 252.358C-2.6957 232.966 -0.911629 213.646 1.33631 194.398Z" fill="url(#paint0_linear)" fill-opacity="0.3"/>
<path d="M-19.1805 157.23C-19.1449 160.354 -18.1101 163.479 -16.0763 165.992C-15.8978 166.244 -15.6838 166.531 -15.434 166.783C-15.1842 167.034 -14.9344 167.249 -14.649 167.429C-9.40381 171.666 -1.58956 171.774 3.37017 166.783C5.86787 164.269 7.18809 160.749 7.29514 157.23C7.18809 153.675 5.83219 150.156 3.37017 147.678C-1.58956 142.686 -9.40381 142.794 -14.649 147.031C-14.8988 147.211 -15.1842 147.426 -15.434 147.678C-15.6838 147.929 -15.8978 148.181 -16.0763 148.468C-18.0744 150.982 -19.1449 154.106 -19.1805 157.23ZM12.9328 79.1597C10.7562 81.3862 9.32898 84.3309 8.97216 87.5629C8.9008 87.8861 8.86512 88.2093 8.9008 88.5684C8.9008 88.9275 8.93648 89.2507 8.97216 89.5739C9.68579 96.3252 15.1807 101.927 22.1743 101.963C25.6711 101.963 29.0965 100.419 31.6656 98.013C34.0919 95.4274 35.5906 91.98 35.5906 88.4607C35.5906 81.4221 29.9886 75.8918 23.2804 75.1736C22.9593 75.1018 22.6382 75.0659 22.2814 75.1018C21.9245 75.1018 21.6034 75.1377 21.2823 75.1736C18.1066 75.5327 15.1451 77.0051 12.9328 79.1597ZM90.5044 46.8399C87.4001 46.8758 84.2958 47.9172 81.7981 49.9641C81.5483 50.1437 81.2629 50.3591 81.0131 50.6105C80.7633 50.8619 80.5493 51.1133 80.3709 51.4006C76.1604 56.6795 76.0534 64.544 81.0131 69.5356C83.5108 72.0494 87.0076 73.3781 90.5044 73.4858C94.0369 73.3781 97.5337 72.0135 99.9957 69.5356C104.955 64.544 104.848 56.6795 100.638 51.4006C100.46 51.1492 100.245 50.8619 99.9957 50.6105C99.7459 50.3591 99.4961 50.1437 99.2107 49.9641C96.6773 47.9531 93.573 46.8758 90.5044 46.8399ZM168.04 79.1597C165.828 76.9692 162.902 75.5327 159.691 75.1736C159.37 75.1018 159.049 75.0659 158.692 75.1018C158.335 75.1018 158.014 75.1377 157.693 75.1736C150.985 75.8918 145.418 81.4221 145.383 88.4607C145.383 91.98 146.917 95.4274 149.308 98.013C151.877 100.455 155.302 101.963 158.799 101.963C165.792 101.963 171.287 96.3252 172.001 89.5739C172.072 89.2507 172.108 88.9275 172.072 88.5684C172.072 88.2093 172.037 87.8861 172.001 87.5629C171.644 84.3668 170.217 81.3862 168.04 79.1597ZM200.154 157.23C200.118 154.106 199.083 150.982 197.049 148.468C196.871 148.217 196.657 147.929 196.407 147.678C196.157 147.426 195.908 147.211 195.622 147.031C190.377 142.794 182.563 142.686 177.603 147.678C175.105 150.192 173.785 153.711 173.678 157.23C173.785 160.785 175.141 164.305 177.603 166.783C182.563 171.774 190.377 171.666 195.622 167.429C195.872 167.249 196.157 167.034 196.407 166.783C196.657 166.531 196.871 166.28 197.049 165.992C199.083 163.443 200.154 160.319 200.154 157.23ZM168.04 235.265C170.217 233.038 171.644 230.094 172.001 226.862C172.072 226.538 172.108 226.215 172.072 225.856C172.072 225.497 172.037 225.174 172.001 224.851C171.287 218.099 165.792 212.497 158.799 212.461C155.302 212.461 151.877 214.005 149.308 216.411C146.881 218.997 145.383 222.444 145.383 225.964C145.383 233.002 150.985 238.533 157.693 239.251C158.014 239.323 158.335 239.359 158.692 239.323C159.049 239.323 159.37 239.287 159.691 239.251C162.902 238.892 165.828 237.455 168.04 235.265ZM90.5044 267.585C93.6087 267.549 96.713 266.507 99.2107 264.46C99.4605 264.281 99.7459 264.065 99.9957 263.814C100.245 263.563 100.46 263.311 100.638 263.024C104.848 257.745 104.955 249.88 99.9957 244.889C97.498 242.375 94.0012 241.046 90.5044 240.939C86.9719 241.046 83.4751 242.411 81.0131 244.889C76.0534 249.88 76.1604 257.745 80.3709 263.024C80.5493 263.275 80.7633 263.563 81.0131 263.814C81.2629 264.065 81.5127 264.281 81.7981 264.46C84.2958 266.507 87.4001 267.585 90.5044 267.585ZM12.9328 235.265C15.1451 237.455 18.0709 238.892 21.2823 239.251C21.6034 239.323 21.9245 239.359 22.2814 239.323C22.6382 239.323 22.9593 239.287 23.2804 239.251C29.9886 238.533 35.5549 233.002 35.5906 225.964C35.5906 222.444 34.0563 218.997 31.6656 216.411C29.0965 213.969 25.6711 212.461 22.1743 212.461C15.1807 212.461 9.68579 218.099 8.97216 224.851C8.9008 225.174 8.86512 225.497 8.9008 225.856C8.9008 226.215 8.93648 226.538 8.97216 226.862C9.32898 230.094 10.7919 233.038 12.9328 235.265ZM-0.554798 157.23C-1.09002 161.109 -5.87134 164.664 -9.72494 161.073C-10.8668 159.816 -11.2949 158.487 -11.2236 157.23C-11.2949 155.973 -10.8668 154.645 -9.72494 153.388C-5.87134 149.797 -1.05434 153.352 -0.554798 157.23ZM26.135 92.4468C23.0307 94.8169 17.1432 93.9191 16.9648 88.6043C17.0362 86.9165 17.6785 85.6596 18.6062 84.8337C19.4268 83.9 20.6757 83.2536 22.3527 83.1818C27.5622 83.3972 28.49 89.3225 26.135 92.4468ZM90.5044 65.5854C86.6508 65.0467 83.1183 60.2347 86.6865 56.3563C87.9353 55.2071 89.2556 54.7762 90.5044 54.848C91.7533 54.7762 93.0735 55.2071 94.3223 56.3563C97.8905 60.2347 94.358 65.0826 90.5044 65.5854ZM154.874 92.4468C152.519 89.3225 153.411 83.3972 158.692 83.2177C160.369 83.2895 161.618 83.9 162.438 84.8696C163.366 85.6955 164.008 86.9524 164.08 88.6402C163.866 93.8832 157.942 94.8169 154.874 92.4468ZM181.528 157.23C182.063 153.352 186.844 149.797 190.698 153.388C191.84 154.645 192.268 155.973 192.197 157.23C192.268 158.487 191.84 159.816 190.698 161.073C186.88 164.664 182.063 161.109 181.528 157.23ZM154.874 222.014C157.978 219.643 163.866 220.541 164.044 225.856C163.973 227.544 163.366 228.801 162.403 229.627C161.582 230.56 160.333 231.207 158.656 231.279C153.411 231.063 152.519 225.102 154.874 222.014ZM90.5044 248.839C94.358 249.378 97.8905 254.19 94.3223 258.068C93.0735 259.217 91.7533 259.648 90.5044 259.576C89.2556 259.648 87.9353 259.217 86.6865 258.068C83.1183 254.226 86.6508 249.378 90.5044 248.839ZM26.135 222.014C28.49 225.138 27.5979 231.063 22.317 231.243C20.64 231.207 19.3912 230.56 18.5705 229.627C17.6428 228.801 17.0005 227.544 16.9291 225.856C17.1432 220.541 23.0307 219.643 26.135 222.014Z" fill="url(#paint1_linear)" fill-opacity="0.3"/>
</g>
<defs>
<linearGradient id="paint0_linear" x1="-156.464" y1="-47.3232" x2="245.933" y2="186.714" gradientUnits="userSpaceOnUse">
<stop offset="0.0625" stop-color="white"/>
<stop offset="1" stop-color="white" stop-opacity="0"/>
</linearGradient>
<linearGradient id="paint1_linear" x1="90.4866" y1="46.8399" x2="90.4866" y2="267.585" gradientUnits="userSpaceOnUse">
<stop offset="0.0625" stop-color="white"/>
<stop offset="1" stop-color="white" stop-opacity="0"/>
</linearGradient>
<clipPath id="clip0">
<rect width="311" height="313" fill="white" transform="translate(-64.9956 0.730225)"/>
</clipPath>
</defs>
</svg>
